<svg width="343" height="126" viewBox="0 0 343 126" fill="none" xmlns="http://www.w3.org/2000/svg">
<path d="M8.85343 26.1973C3.45743 29.3439 0.0907694 35.1306 0.109436 41.3772V46.8359V54.2972L0.108093 54.2986L0.100098 93.0413L53.6668 62.0879L53.6654 46.0746L14.0721 69.1799L14.0708 61.8026L47.9881 42.0159L47.9894 26.3626L14.1374 45.9879V38.6519L53.6654 15.5946L53.6454 0.245236L8.85343 26.1973Z" fill="url(#paint0_linear_201_1288)"/>
<path d="M59.2441 61.9733L73.1134 69.9786L72.8974 24.1373L79.2867 27.8226L79.4668 67.0906L93.0214 74.9186L92.9521 35.7893L99.3041 39.456L99.5094 85.2186L112.813 92.876L112.732 41.1066C112.705 34.8613 109.377 29.052 103.957 25.9453L99.2308 23.2159L92.7694 19.4853V19.484L59.2188 0.105312L59.2441 61.9733Z" fill="url(#paint1_linear_201_1288)"/>
<path d="M42.6014 74.7961L82.3761 97.5908L75.9814 101.271L41.9147 81.7414L28.3467 89.5481L62.2414 109.1L55.8827 112.759L16.1827 89.9961L2.88672 97.6708L47.7227 123.551C53.1401 126.657 59.8361 126.691 65.2414 123.559L69.9721 120.836L76.4401 117.115L110.027 97.7988L56.4801 66.8094L42.6014 74.7961Z" fill="url(#paint2_linear_201_1288)"/>
<path d="M153.36 100.617H157.28C159.823 100.617 161.408 100.511 162.041 100.296C162.673 100.081 163.169 99.7108 163.527 99.1855C163.884 98.6615 164.063 98.0055 164.063 97.2175C164.063 96.3348 163.828 95.6215 163.357 95.0788C162.885 94.5348 162.22 94.1935 161.36 94.0495C160.931 93.9895 159.643 93.9601 157.495 93.9601H153.36V100.617ZM148.064 115.759V92.6321C148.064 90.9135 149.456 89.5215 151.175 89.5215H159.213C162.016 89.5215 164.055 89.7575 165.325 90.2281C166.596 90.7015 167.612 91.5375 168.376 92.7428C169.14 93.9495 169.523 95.3255 169.523 96.8775C169.523 98.8455 168.944 100.472 167.787 101.755C166.629 103.037 164.899 103.845 162.597 104.179C163.741 104.848 164.688 105.581 165.432 106.381C166.179 107.18 167.184 108.601 168.448 110.64L171.653 115.759H166.875C165.901 115.759 164.991 115.273 164.447 114.464L161.487 110.049C160.127 108.009 159.195 106.724 158.695 106.193C158.193 105.661 157.663 105.297 157.101 105.101C156.541 104.904 155.652 104.805 154.435 104.805H153.36V112.731C153.36 114.403 152.004 115.759 150.332 115.759H148.064Z" fill="black"/>
<path d="M185.773 104.627C185.737 103.171 185.361 102.065 184.645 101.307C183.93 100.548 183.058 100.171 182.033 100.171C180.934 100.171 180.027 100.571 179.311 101.369C178.595 102.169 178.245 103.256 178.255 104.627H185.773ZM187.921 110.119L190.497 110.551C189.854 112.388 188.835 113.788 187.446 114.748C186.057 115.709 184.318 116.189 182.229 116.189C178.923 116.189 176.478 115.108 174.891 112.948C173.638 111.219 173.013 109.036 173.013 106.399C173.013 103.249 173.835 100.783 175.481 98.9972C177.127 97.2145 179.211 96.3212 181.727 96.3212C184.555 96.3212 186.786 97.2572 188.422 99.1225C190.055 100.991 190.837 103.852 190.767 107.705H178.166C178.202 109.197 178.609 110.357 179.383 111.185C180.159 112.016 181.126 112.432 182.283 112.432C183.07 112.432 183.733 112.216 184.269 111.787C184.442 111.648 184.603 111.481 184.749 111.288C185.475 110.324 186.731 109.919 187.921 110.119Z" fill="black"/>
<path d="M205.352 106.631C204.709 106.846 203.686 107.103 202.292 107.402C200.896 107.699 199.982 107.992 199.553 108.278C198.897 108.743 198.57 109.334 198.57 110.05C198.57 110.754 198.832 111.363 199.357 111.876C199.881 112.388 200.549 112.644 201.361 112.644C202.268 112.644 203.132 112.346 203.956 111.75C204.564 111.298 204.964 110.742 205.156 110.086C205.285 109.656 205.352 108.839 205.352 107.632V106.631ZM196.129 102.102L194.058 101.728C194.572 99.8898 195.456 98.5298 196.708 97.6471C197.961 96.7645 199.821 96.3218 202.292 96.3218C204.534 96.3218 206.205 96.5885 207.302 97.1191C208.401 97.6498 209.174 98.3245 209.621 99.1418C210.068 99.9591 210.292 101.459 210.292 103.643L210.238 109.512C210.238 111.184 210.318 112.415 210.48 113.208C210.64 114.002 210.941 114.852 211.384 115.759H207.897C206.989 115.759 206.184 115.164 205.932 114.294L205.925 114.274C205.841 113.975 205.781 113.778 205.745 113.683C204.886 114.519 203.968 115.144 202.99 115.562C202.01 115.98 200.968 116.188 199.857 116.188C197.9 116.188 196.358 115.658 195.23 114.595C194.102 113.534 193.54 112.191 193.54 110.57C193.54 109.495 193.797 108.538 194.31 107.695C194.822 106.855 195.541 106.211 196.466 105.764C197.39 105.316 198.724 104.924 200.465 104.59C202.817 104.15 204.445 103.739 205.352 103.356V102.855C205.352 101.888 205.113 101.199 204.636 100.788C204.16 100.376 203.258 100.171 201.934 100.171C201.038 100.171 200.341 100.347 199.84 100.698C199.729 100.775 199.624 100.866 199.522 100.97C198.634 101.878 197.378 102.327 196.129 102.102Z" fill="black"/>
<path d="M215.249 115.759V93.0388C215.249 91.0961 216.824 89.5215 218.767 89.5215H220.279V112.948C220.279 114.5 219.021 115.759 217.468 115.759H215.249Z" fill="black"/>
<path d="M235.653 115.759V92.9241C235.653 91.0441 237.177 89.5215 239.055 89.5215H255.107V90.2388C255.107 92.2935 253.441 93.9601 251.386 93.9601H240.95V99.7775H254.123V100.712C254.123 102.636 252.563 104.197 250.638 104.197H240.95V111.337H255.609V111.92C255.609 114.04 253.89 115.759 251.77 115.759H235.653Z" fill="black"/>
<path d="M258.292 110.335L259.555 110.143C261.292 109.878 263.114 110.337 264.375 111.559C264.462 111.643 264.551 111.721 264.647 111.794C265.302 112.302 266.22 112.555 267.402 112.555C268.702 112.555 269.682 112.317 270.336 111.839C270.779 111.505 271 111.058 271 110.497C271 110.115 270.88 109.799 270.64 109.547C270.391 109.309 269.83 109.09 268.959 108.886C264.902 107.993 262.331 107.175 261.246 106.435C259.742 105.409 258.991 103.982 258.991 102.157C258.991 100.511 259.64 99.1261 260.942 98.0047C262.242 96.8834 264.258 96.3221 266.991 96.3221C269.592 96.3221 271.523 96.7474 272.79 97.5941C274.054 98.4407 274.924 99.6941 275.403 101.351L273.846 101.639C272.314 101.922 270.795 101.439 269.522 100.539C269.516 100.535 269.511 100.531 269.506 100.529C268.938 100.134 268.13 99.9381 267.08 99.9381C265.755 99.9381 264.806 100.123 264.234 100.493C263.852 100.755 263.662 101.094 263.662 101.513C263.662 101.87 263.83 102.175 264.163 102.426C264.616 102.759 266.182 103.23 268.86 103.839C271.54 104.447 273.408 105.194 274.471 106.077C275.522 106.971 276.047 108.218 276.047 109.815C276.047 111.558 275.319 113.057 273.862 114.31C272.407 115.561 270.254 116.189 267.402 116.189C264.812 116.189 262.764 115.663 261.254 114.614C259.744 113.563 258.758 112.138 258.292 110.335Z" fill="black"/>
<path d="M289.167 96.7514V97.7834C289.167 99.4274 287.833 100.761 286.191 100.761H285.731V108.421C285.731 109.971 285.763 110.877 285.829 111.133C285.893 111.39 286.043 111.601 286.276 111.767C286.508 111.935 286.792 112.018 287.127 112.018C287.592 112.018 288.265 111.857 289.148 111.535L289.264 112.585C289.463 114.39 288.144 116.061 286.332 116.167C286.093 116.182 285.852 116.189 285.605 116.189C284.699 116.189 283.88 116.037 283.153 115.733C282.424 115.427 281.891 115.034 281.551 114.551C281.211 114.069 280.975 113.414 280.843 112.59C280.736 112.007 280.683 110.825 280.683 109.047V100.761H278.375V98.5474C278.375 97.5554 279.179 96.7514 280.169 96.7514H280.683V93.6487C280.683 91.6567 282.299 90.0407 284.292 90.0407H285.731V96.7514H289.167Z" fill="black"/>
<path d="M303.143 106.631C302.5 106.846 301.479 107.103 300.083 107.402C298.687 107.699 297.775 107.992 297.344 108.278C296.689 108.743 296.361 109.334 296.361 110.05C296.361 110.754 296.623 111.363 297.148 111.876C297.672 112.388 298.34 112.644 299.153 112.644C300.059 112.644 300.923 112.346 301.747 111.75C302.356 111.298 302.755 110.742 302.947 110.086C303.077 109.656 303.143 108.839 303.143 107.632V106.631ZM293.815 102.082L291.851 101.728C292.364 99.8898 293.247 98.5298 294.5 97.6471C295.753 96.7645 297.613 96.3218 300.083 96.3218C302.325 96.3218 303.996 96.5885 305.093 97.1191C306.192 97.6498 306.965 98.3245 307.412 99.1418C307.859 99.9591 308.084 101.459 308.084 103.643L308.031 109.512C308.031 111.184 308.111 112.415 308.272 113.208C308.432 114.002 308.732 114.852 309.175 115.759H305.688C304.78 115.759 303.976 115.164 303.723 114.294L303.717 114.274C303.632 113.975 303.572 113.778 303.536 113.683C302.679 114.519 301.759 115.144 300.781 115.562C299.803 115.98 298.759 116.188 297.648 116.188C295.692 116.188 294.149 115.658 293.023 114.595C291.893 113.534 291.331 112.191 291.331 110.57C291.331 109.495 291.588 108.538 292.101 107.695C292.615 106.855 293.332 106.211 294.257 105.764C295.181 105.316 296.515 104.924 298.257 104.59C300.608 104.15 302.236 103.739 303.143 103.356V102.855C303.143 101.888 302.904 101.199 302.428 100.788C301.951 100.376 301.049 100.171 299.725 100.171C298.829 100.171 298.132 100.347 297.632 100.698C297.548 100.756 297.467 100.823 297.389 100.896C296.415 101.811 295.129 102.32 293.815 102.082Z" fill="black"/>
<path d="M321.756 96.7514V98.0181C321.756 99.5314 320.528 100.761 319.012 100.761H318.32V108.421C318.32 109.971 318.352 110.877 318.419 111.133C318.483 111.39 318.632 111.601 318.866 111.767C319.098 111.935 319.382 112.018 319.716 112.018C320.182 112.018 320.854 111.857 321.738 111.535L321.888 112.902C322.067 114.533 320.876 116.003 319.24 116.145C318.9 116.174 318.552 116.189 318.195 116.189C317.287 116.189 316.47 116.037 315.743 115.733C315.014 115.427 314.48 115.034 314.14 114.551C313.8 114.069 313.564 113.414 313.432 112.59C313.326 112.007 313.272 110.825 313.272 109.047V100.761H310.964V98.6634C310.964 97.6074 311.82 96.7514 312.875 96.7514H313.272V93.2781C313.272 91.4901 314.723 90.0407 316.51 90.0407H318.32V96.7514H321.756Z" fill="black"/>
<path d="M336.54 104.627C336.504 103.171 336.127 102.065 335.412 101.307C334.698 100.548 333.826 100.171 332.799 100.171C331.702 100.171 330.795 100.571 330.078 101.369C329.363 102.169 329.012 103.256 329.023 104.627H336.54ZM338.315 110.056L341.264 110.551C340.622 112.388 339.603 113.788 338.214 114.748C336.824 115.709 335.084 116.189 332.996 116.189C329.691 116.189 327.246 115.108 325.659 112.948C324.404 111.219 323.78 109.036 323.78 106.399C323.78 103.249 324.603 100.783 326.248 98.9972C327.895 97.2145 329.978 96.3212 332.495 96.3212C335.323 96.3212 337.554 97.2572 339.188 99.1225C340.823 100.991 341.604 103.852 341.534 107.705H328.934C328.97 109.197 329.376 110.357 330.151 111.185C330.927 112.016 331.894 112.432 333.051 112.432C333.838 112.432 334.5 112.216 335.036 111.787C335.215 111.643 335.38 111.471 335.53 111.269C336.187 110.385 337.23 109.873 338.315 110.056Z" fill="black"/>
<path d="M147.581 79.7839V17.4173C147.581 13.2159 150.986 9.81193 155.187 9.81193H199.463V14.0439C199.463 18.2439 196.058 21.6493 191.858 21.6493H161.709V37.1613H196.838V41.3439C196.838 45.5453 193.433 48.9506 189.231 48.9506H161.709V67.9946H200.801V72.1773C200.801 76.3786 197.394 79.7839 193.194 79.7839H147.581Z" fill="black"/>
<path d="M212.685 79.7839V17.4173C212.685 13.2159 216.09 9.81193 220.291 9.81193H226.097V72.1773C226.097 76.3786 222.691 79.7839 218.49 79.7839H212.685Z" fill="black"/>
<path d="M239.844 79.7839V38.2226C239.844 33.1813 243.929 29.0946 248.97 29.0946H253.256V72.1773C253.256 76.3786 249.849 79.7839 245.649 79.7839H239.844ZM239.844 22.2226V16.2466C239.844 12.6919 242.725 9.81193 246.278 9.81193H253.256V16.9559C253.256 19.8639 250.897 22.2226 247.989 22.2226H239.844Z" fill="black"/>
<path d="M290.246 29.5007V34.5567C290.246 37.4447 287.904 39.786 285.016 39.786H281.488C281.264 39.786 281.081 39.9687 281.081 40.1927V60.2154C281.081 64.3514 281.169 66.7607 281.344 67.4447C281.52 68.13 281.917 68.6954 282.537 69.1407C283.158 69.586 283.913 69.8087 284.805 69.8087C285.96 69.8087 287.596 69.4367 289.716 68.6927C289.964 68.606 290.226 68.77 290.256 69.03L290.969 75.5114C291.202 77.6434 289.817 79.6127 287.734 80.1274C285.57 80.662 283.242 80.9287 280.748 80.9287C278.329 80.9287 276.149 80.5247 274.209 79.7114C272.268 78.9007 270.844 77.85 269.937 76.562C269.03 75.2727 268.401 73.53 268.052 71.3367C267.765 69.778 267.622 66.626 267.622 61.886V40.1927C267.622 39.9687 267.44 39.786 267.216 39.786H261.87C261.646 39.786 261.465 39.6047 261.465 39.3807V30.9287C261.465 29.9167 262.285 29.094 263.3 29.094H267.216C267.44 29.094 267.622 28.9127 267.622 28.6887V18.802C267.622 14.602 271.026 11.1954 275.228 11.1954H280.676C280.9 11.1954 281.081 11.378 281.081 11.602V28.6887C281.081 28.9127 281.264 29.094 281.488 29.094H289.84C290.064 29.094 290.246 29.2767 290.246 29.5007Z" fill="black"/>
<path d="M329.67 50.0959C329.576 46.2132 328.573 43.2639 326.664 41.2412C324.754 39.2225 322.432 38.2119 319.696 38.2119C316.768 38.2119 314.349 39.2785 312.44 41.4092C310.532 43.5412 309.592 46.4359 309.625 50.0959H329.67ZM335.38 64.7372L342.27 65.8945C340.553 70.7959 337.84 74.5265 334.134 77.0879C330.426 79.6492 325.789 80.9292 320.221 80.9292C311.406 80.9292 304.882 78.0492 300.65 72.2905C297.309 67.6772 295.64 61.8532 295.64 54.8212C295.64 46.4212 297.836 39.8439 302.226 35.0839C306.616 30.3292 312.17 27.9492 318.885 27.9492C326.425 27.9492 332.374 30.4385 336.734 35.4185C341.093 40.3999 343.18 48.0292 342.988 58.3065H309.386C309.48 62.2839 310.562 65.3785 312.632 67.5892C314.7 69.8012 317.277 70.9065 320.364 70.9065C322.464 70.9065 324.23 70.3332 325.661 69.1879C326.086 68.8492 326.477 68.4492 326.84 67.9879C328.86 65.4159 332.154 64.1959 335.38 64.7372Z" fill="black"/>
<defs>
<linearGradient id="paint0_linear_201_1288" x1="26.8835" y1="-0.947934" x2="26.8835" y2="119.749" gradientUnits="userSpaceOnUse">
<stop stop-color="#FF0000"/>
<stop offset="0.485427" stop-color="#FF0000"/>
<stop offset="1" stop-color="#900000"/>
</linearGradient>
<linearGradient id="paint1_linear_201_1288" x1="86.0161" y1="-0.947947" x2="86.0161" y2="119.749" gradientUnits="userSpaceOnUse">
<stop stop-color="#FF0000"/>
<stop offset="0.485427" stop-color="#FF0000"/>
<stop offset="1" stop-color="#900000"/>
</linearGradient>
<linearGradient id="paint2_linear_201_1288" x1="56.4569" y1="-0.947614" x2="56.4569" y2="119.75" gradientUnits="userSpaceOnUse">
<stop stop-color="#FF0000"/>
<stop offset="0.485427" stop-color="#FF0000"/>
<stop offset="1" stop-color="#900000"/>
</linearGradient>
</defs>
</svg>
