<svg width="343" height="126" viewBox="0 0 343 126" fill="none" xmlns="http://www.w3.org/2000/svg">
<path d="M8.75334 26.092C3.35734 29.2387 -0.00932829 35.0253 0.00933838 41.272V46.7307V54.192L0.0079956 54.1934L0 92.936L53.5667 61.9827L53.5653 45.9694L13.972 69.0747L13.9707 61.6973L47.888 41.9107L47.8893 26.2574L14.0373 45.8827V38.5467L53.5653 15.4894L53.5453 0.140012L8.75334 26.092Z" fill="url(#paint0_linear_201_1290)"/>
<path d="M59.144 61.8681L73.0133 69.8734L72.7973 24.0321L79.1866 27.7174L79.3667 66.9854L92.9213 74.8134L92.852 35.6841L99.204 39.3508L99.4093 85.1134L112.713 92.7708L112.632 41.0014C112.605 34.7561 109.277 28.9468 103.857 25.8401L99.1307 23.1107L92.6693 19.3801V19.3787L59.1187 8.69098e-05L59.144 61.8681Z" fill="url(#paint1_linear_201_1290)"/>
<path d="M42.5013 74.6909L82.276 97.4855L75.8813 101.166L41.8146 81.6362L28.2466 89.4429L62.1413 108.995L55.7826 112.654L16.0826 89.8909L2.78662 97.5655L47.6226 123.446C53.04 126.552 59.736 126.586 65.1413 123.454L69.872 120.731L76.34 117.01L109.927 97.6935L56.38 66.7042L42.5013 74.6909Z" fill="url(#paint2_linear_201_1290)"/>
<path d="M153.26 100.512H157.18C159.723 100.512 161.308 100.405 161.941 100.191C162.573 99.976 163.069 99.6053 163.427 99.08C163.784 98.556 163.963 97.9 163.963 97.112C163.963 96.2293 163.728 95.516 163.257 94.9733C162.785 94.4293 162.12 94.088 161.26 93.944C160.831 93.884 159.543 93.8547 157.395 93.8547H153.26V100.512ZM147.964 115.653V92.5267C147.964 90.808 149.356 89.416 151.075 89.416H159.113C161.916 89.416 163.955 89.652 165.225 90.1227C166.496 90.596 167.512 91.432 168.276 92.6373C169.04 93.844 169.423 95.22 169.423 96.772C169.423 98.74 168.844 100.367 167.687 101.649C166.529 102.932 164.799 103.74 162.497 104.073C163.641 104.743 164.588 105.476 165.332 106.276C166.079 107.075 167.084 108.496 168.348 110.535L171.553 115.653H166.775C165.801 115.653 164.891 115.168 164.347 114.359L161.387 109.944C160.027 107.904 159.095 106.619 158.595 106.088C158.093 105.556 157.563 105.192 157.001 104.996C156.441 104.799 155.552 104.7 154.335 104.7H153.26V112.625C153.26 114.297 151.904 115.653 150.232 115.653H147.964Z" fill="white"/>
<path d="M185.673 104.521C185.637 103.065 185.261 101.96 184.545 101.201C183.83 100.443 182.958 100.065 181.933 100.065C180.834 100.065 179.927 100.465 179.211 101.264C178.495 102.064 178.145 103.151 178.155 104.521H185.673ZM187.821 110.013L190.397 110.445C189.754 112.283 188.735 113.683 187.346 114.643C185.957 115.604 184.218 116.084 182.129 116.084C178.823 116.084 176.378 115.003 174.791 112.843C173.538 111.113 172.913 108.931 172.913 106.293C172.913 103.144 173.735 100.677 175.381 98.892C177.027 97.1093 179.111 96.216 181.627 96.216C184.455 96.216 186.686 97.152 188.322 99.0173C189.955 100.885 190.737 103.747 190.667 107.6H178.066C178.102 109.092 178.509 110.252 179.283 111.08C180.059 111.911 181.026 112.327 182.183 112.327C182.97 112.327 183.633 112.111 184.169 111.681C184.342 111.543 184.503 111.376 184.649 111.183C185.375 110.219 186.631 109.813 187.821 110.013Z" fill="white"/>
<path d="M205.251 106.526C204.609 106.741 203.586 106.998 202.191 107.297C200.795 107.594 199.882 107.887 199.453 108.173C198.797 108.638 198.47 109.229 198.47 109.945C198.47 110.649 198.731 111.258 199.257 111.771C199.781 112.283 200.449 112.539 201.261 112.539C202.167 112.539 203.031 112.241 203.855 111.645C204.463 111.193 204.863 110.637 205.055 109.981C205.185 109.551 205.251 108.734 205.251 107.527V106.526ZM196.029 101.997L193.958 101.623C194.471 99.7846 195.355 98.4246 196.607 97.5419C197.861 96.6593 199.721 96.2166 202.191 96.2166C204.434 96.2166 206.105 96.4833 207.202 97.0139C208.301 97.5446 209.074 98.2193 209.521 99.0366C209.967 99.8539 210.191 101.354 210.191 103.538L210.138 109.407C210.138 111.079 210.218 112.31 210.379 113.103C210.539 113.897 210.841 114.747 211.283 115.654H207.797C206.889 115.654 206.083 115.059 205.831 114.189L205.825 114.169C205.741 113.87 205.681 113.673 205.645 113.578C204.786 114.414 203.867 115.039 202.89 115.457C201.91 115.875 200.867 116.083 199.757 116.083C197.799 116.083 196.258 115.553 195.13 114.49C194.002 113.429 193.439 112.086 193.439 110.465C193.439 109.39 193.697 108.433 194.21 107.59C194.722 106.75 195.441 106.106 196.366 105.659C197.29 105.211 198.623 104.819 200.365 104.485C202.717 104.045 204.345 103.634 205.251 103.251V102.75C205.251 101.783 205.013 101.094 204.535 100.683C204.059 100.271 203.158 100.066 201.834 100.066C200.938 100.066 200.241 100.242 199.739 100.593C199.629 100.67 199.523 100.761 199.422 100.865C198.534 101.773 197.278 102.222 196.029 101.997Z" fill="white"/>
<path d="M215.149 115.653V92.9333C215.149 90.9907 216.724 89.416 218.667 89.416H220.179V112.843C220.179 114.395 218.921 115.653 217.368 115.653H215.149Z" fill="white"/>
<path d="M235.553 115.653V92.8187C235.553 90.9387 237.077 89.416 238.955 89.416H255.007V90.1333C255.007 92.188 253.341 93.8547 251.286 93.8547H240.85V99.672H254.023V100.607C254.023 102.531 252.463 104.092 250.538 104.092H240.85V111.232H255.509V111.815C255.509 113.935 253.79 115.653 251.67 115.653H235.553Z" fill="white"/>
<path d="M258.192 110.23L259.455 110.038C261.192 109.773 263.013 110.231 264.275 111.454C264.361 111.538 264.451 111.615 264.547 111.689C265.201 112.197 266.12 112.45 267.301 112.45C268.601 112.45 269.581 112.211 270.236 111.734C270.679 111.399 270.9 110.953 270.9 110.391C270.9 110.01 270.78 109.694 270.54 109.442C270.291 109.203 269.729 108.985 268.859 108.781C264.801 107.887 262.231 107.07 261.145 106.33C259.641 105.303 258.891 103.877 258.891 102.051C258.891 100.406 259.54 99.0208 260.841 97.8995C262.141 96.7782 264.157 96.2168 266.891 96.2168C269.492 96.2168 271.423 96.6422 272.689 97.4888C273.953 98.3355 274.824 99.5888 275.303 101.246L273.745 101.534C272.213 101.817 270.695 101.334 269.421 100.434C269.416 100.43 269.411 100.426 269.405 100.423C268.837 100.029 268.029 99.8328 266.98 99.8328C265.655 99.8328 264.705 100.018 264.133 100.387C263.752 100.65 263.561 100.989 263.561 101.407C263.561 101.765 263.729 102.07 264.063 102.321C264.516 102.654 266.081 103.125 268.76 103.734C271.44 104.342 273.308 105.089 274.371 105.971C275.421 106.866 275.947 108.113 275.947 109.71C275.947 111.453 275.219 112.951 273.761 114.205C272.307 115.455 270.153 116.083 267.301 116.083C264.712 116.083 262.664 115.558 261.153 114.509C259.644 113.458 258.657 112.033 258.192 110.23Z" fill="white"/>
<path d="M289.066 96.6462V97.6782C289.066 99.3222 287.733 100.655 286.09 100.655H285.63V108.315C285.63 109.866 285.662 110.771 285.729 111.027C285.793 111.285 285.942 111.495 286.176 111.662C286.408 111.83 286.692 111.913 287.026 111.913C287.492 111.913 288.165 111.751 289.048 111.43L289.164 112.479C289.362 114.285 288.044 115.955 286.232 116.062C285.993 116.077 285.752 116.083 285.505 116.083C284.598 116.083 283.78 115.931 283.053 115.627C282.324 115.322 281.79 114.929 281.45 114.446C281.11 113.963 280.874 113.309 280.742 112.485C280.636 111.902 280.582 110.719 280.582 108.942V100.655H278.274V98.4422C278.274 97.4502 279.078 96.6462 280.069 96.6462H280.582V93.5435C280.582 91.5515 282.198 89.9355 284.192 89.9355H285.63V96.6462H289.066Z" fill="white"/>
<path d="M303.042 106.526C302.4 106.741 301.378 106.998 299.982 107.297C298.586 107.594 297.674 107.887 297.244 108.173C296.589 108.638 296.261 109.229 296.261 109.945C296.261 110.649 296.522 111.258 297.048 111.771C297.572 112.283 298.24 112.539 299.053 112.539C299.958 112.539 300.822 112.241 301.646 111.645C302.256 111.193 302.654 110.637 302.846 109.981C302.977 109.551 303.042 108.734 303.042 107.527V106.526ZM293.714 101.977L291.75 101.623C292.264 99.7846 293.146 98.4246 294.4 97.5419C295.653 96.6593 297.513 96.2166 299.982 96.2166C302.225 96.2166 303.896 96.4833 304.993 97.0139C306.092 97.5446 306.865 98.2193 307.312 99.0366C307.758 99.8539 307.984 101.354 307.984 103.538L307.93 109.407C307.93 111.079 308.01 112.31 308.172 113.103C308.332 113.897 308.632 114.747 309.074 115.654H305.588C304.68 115.654 303.876 115.059 303.622 114.189L303.617 114.169C303.532 113.87 303.472 113.673 303.436 113.578C302.578 114.414 301.658 115.039 300.681 115.457C299.702 115.875 298.658 116.083 297.548 116.083C295.592 116.083 294.049 115.553 292.922 114.49C291.793 113.429 291.23 112.086 291.23 110.465C291.23 109.39 291.488 108.433 292.001 107.59C292.514 106.75 293.232 106.106 294.157 105.659C295.081 105.211 296.414 104.819 298.157 104.485C300.508 104.045 302.136 103.634 303.042 103.251V102.75C303.042 101.783 302.804 101.094 302.328 100.683C301.85 100.271 300.949 100.066 299.625 100.066C298.729 100.066 298.032 100.242 297.532 100.593C297.448 100.651 297.366 100.718 297.289 100.791C296.314 101.706 295.029 102.215 293.714 101.977Z" fill="white"/>
<path d="M321.656 96.6462V97.9128C321.656 99.4262 320.428 100.655 318.912 100.655H318.22V108.315C318.22 109.866 318.252 110.771 318.319 111.027C318.383 111.285 318.532 111.495 318.766 111.662C318.998 111.83 319.282 111.913 319.616 111.913C320.082 111.913 320.754 111.751 321.638 111.43L321.788 112.797C321.967 114.427 320.776 115.898 319.14 116.039C318.8 116.069 318.452 116.083 318.095 116.083C317.187 116.083 316.37 115.931 315.643 115.627C314.914 115.322 314.38 114.929 314.04 114.446C313.7 113.963 313.464 113.309 313.332 112.485C313.226 111.902 313.172 110.719 313.172 108.942V100.655H310.864V98.5582C310.864 97.5022 311.72 96.6462 312.775 96.6462H313.172V93.1728C313.172 91.3848 314.623 89.9355 316.41 89.9355H318.22V96.6462H321.656Z" fill="white"/>
<path d="M336.44 104.521C336.404 103.065 336.027 101.96 335.312 101.201C334.598 100.443 333.726 100.065 332.699 100.065C331.602 100.065 330.695 100.465 329.978 101.264C329.263 102.064 328.912 103.151 328.923 104.521H336.44ZM338.215 109.951L341.164 110.445C340.522 112.283 339.503 113.683 338.114 114.643C336.724 115.604 334.984 116.084 332.896 116.084C329.591 116.084 327.146 115.003 325.559 112.843C324.304 111.113 323.68 108.931 323.68 106.293C323.68 103.144 324.503 100.677 326.148 98.892C327.795 97.1093 329.878 96.216 332.395 96.216C335.223 96.216 337.454 97.152 339.088 99.0173C340.723 100.885 341.504 103.747 341.434 107.6H328.834C328.87 109.092 329.276 110.252 330.051 111.08C330.827 111.911 331.794 112.327 332.951 112.327C333.738 112.327 334.4 112.111 334.936 111.681C335.115 111.537 335.28 111.365 335.43 111.164C336.087 110.28 337.13 109.768 338.215 109.951Z" fill="white"/>
<path d="M147.48 79.6787V17.312C147.48 13.1107 150.886 9.70671 155.087 9.70671H199.363V13.9387C199.363 18.1387 195.958 21.544 191.758 21.544H161.608V37.056H196.738V41.2387C196.738 45.44 193.332 48.8454 189.131 48.8454H161.608V67.8894H200.7V72.072C200.7 76.2734 197.294 79.6787 193.094 79.6787H147.48Z" fill="white"/>
<path d="M212.585 79.6787V17.312C212.585 13.1107 215.99 9.70671 220.191 9.70671H225.997V72.072C225.997 76.2734 222.591 79.6787 218.39 79.6787H212.585Z" fill="white"/>
<path d="M239.744 79.6787V38.1174C239.744 33.076 243.829 28.9894 248.87 28.9894H253.156V72.072C253.156 76.2734 249.749 79.6787 245.549 79.6787H239.744ZM239.744 22.1174V16.1414C239.744 12.5867 242.625 9.70671 246.178 9.70671H253.156V16.8507C253.156 19.7587 250.797 22.1174 247.889 22.1174H239.744Z" fill="white"/>
<path d="M290.146 29.3955V34.4515C290.146 37.3395 287.803 39.6808 284.915 39.6808H281.387C281.163 39.6808 280.981 39.8635 280.981 40.0875V60.1102C280.981 64.2462 281.069 66.6555 281.243 67.3395C281.419 68.0248 281.817 68.5902 282.437 69.0355C283.058 69.4808 283.813 69.7035 284.705 69.7035C285.859 69.7035 287.495 69.3315 289.615 68.5875C289.863 68.5008 290.126 68.6648 290.155 68.9248L290.869 75.4062C291.102 77.5382 289.717 79.5075 287.634 80.0222C285.47 80.5568 283.142 80.8235 280.647 80.8235C278.229 80.8235 276.049 80.4195 274.109 79.6062C272.167 78.7955 270.743 77.7448 269.837 76.4568C268.93 75.1675 268.301 73.4248 267.951 71.2315C267.665 69.6728 267.522 66.5208 267.522 61.7808V40.0875C267.522 39.8635 267.339 39.6808 267.115 39.6808H261.77C261.546 39.6808 261.365 39.4995 261.365 39.2755V30.8235C261.365 29.8115 262.185 28.9888 263.199 28.9888H267.115C267.339 28.9888 267.522 28.8075 267.522 28.5835V18.6968C267.522 14.4968 270.926 11.0902 275.127 11.0902H280.575C280.799 11.0902 280.981 11.2728 280.981 11.4968V28.5835C280.981 28.8075 281.163 28.9888 281.387 28.9888H289.739C289.963 28.9888 290.146 29.1715 290.146 29.3955Z" fill="white"/>
<path d="M329.57 49.9906C329.476 46.108 328.473 43.1586 326.564 41.136C324.654 39.1173 322.332 38.1066 319.596 38.1066C316.668 38.1066 314.249 39.1733 312.34 41.304C310.432 43.436 309.492 46.3306 309.525 49.9906H329.57ZM335.28 64.632L342.17 65.7893C340.453 70.6906 337.74 74.4213 334.034 76.9826C330.326 79.544 325.689 80.824 320.121 80.824C311.306 80.824 304.782 77.944 300.55 72.1853C297.209 67.572 295.54 61.748 295.54 54.716C295.54 46.316 297.736 39.7386 302.126 34.9786C306.516 30.224 312.07 27.844 318.785 27.844C326.325 27.844 332.274 30.3333 336.634 35.3133C340.993 40.2946 343.08 47.924 342.888 58.2013H309.286C309.38 62.1786 310.462 65.2733 312.532 67.484C314.6 69.696 317.177 70.8013 320.264 70.8013C322.364 70.8013 324.13 70.228 325.561 69.0826C325.986 68.744 326.377 68.344 326.74 67.8826C328.76 65.3106 332.054 64.0906 335.28 64.632Z" fill="white"/>
<defs>
<linearGradient id="paint0_linear_201_1290" x1="26.7834" y1="-1.05316" x2="26.7834" y2="119.644" gradientUnits="userSpaceOnUse">
<stop stop-color="#FF0000"/>
<stop offset="0.485427" stop-color="#FF0000"/>
<stop offset="1" stop-color="#900000"/>
</linearGradient>
<linearGradient id="paint1_linear_201_1290" x1="85.916" y1="-1.05317" x2="85.916" y2="119.644" gradientUnits="userSpaceOnUse">
<stop stop-color="#FF0000"/>
<stop offset="0.485427" stop-color="#FF0000"/>
<stop offset="1" stop-color="#900000"/>
</linearGradient>
<linearGradient id="paint2_linear_201_1290" x1="56.3568" y1="-1.05284" x2="56.3568" y2="119.645" gradientUnits="userSpaceOnUse">
<stop stop-color="#FF0000"/>
<stop offset="0.485427" stop-color="#FF0000"/>
<stop offset="1" stop-color="#900000"/>
</linearGradient>
</defs>
</svg>
