<svg width="347" height="134" viewBox="0 0 347 134" fill="none" xmlns="http://www.w3.org/2000/svg">
<g filter="url(#filter0_d_201_1289)">
<path d="M12.7533 26.092C7.35734 29.2387 3.99067 35.0253 4.00934 41.272V46.7307V54.192L4.008 54.1934L4 92.936L57.5667 61.9827L57.5653 45.9694L17.972 69.0747L17.9707 61.6973L51.888 41.9107L51.8893 26.2574L18.0373 45.8827V38.5467L57.5653 15.4894L57.5453 0.140012L12.7533 26.092Z" fill="url(#paint0_linear_201_1289)"/>
<path d="M63.144 61.8681L77.0133 69.8734L76.7973 24.0321L83.1866 27.7174L83.3667 66.9854L96.9213 74.8134L96.852 35.6841L103.204 39.3508L103.409 85.1134L116.713 92.7708L116.632 41.0014C116.605 34.7561 113.277 28.9468 107.857 25.8401L103.131 23.1107L96.6693 19.3801V19.3787L63.1187 8.69098e-05L63.144 61.8681Z" fill="url(#paint1_linear_201_1289)"/>
<path d="M46.5013 74.6909L86.276 97.4855L79.8813 101.166L45.8146 81.6362L32.2466 89.4429L66.1413 108.995L59.7826 112.654L20.0826 89.8909L6.78662 97.5655L51.6226 123.446C57.04 126.552 63.736 126.586 69.1413 123.454L73.872 120.731L80.34 117.01L113.927 97.6935L60.38 66.7042L46.5013 74.6909Z" fill="url(#paint2_linear_201_1289)"/>
</g>
<path d="M157.26 100.512H161.18C163.723 100.512 165.308 100.405 165.941 100.191C166.573 99.976 167.069 99.6053 167.427 99.08C167.784 98.556 167.963 97.9 167.963 97.112C167.963 96.2293 167.728 95.516 167.257 94.9733C166.785 94.4293 166.12 94.088 165.26 93.944C164.831 93.884 163.543 93.8547 161.395 93.8547H157.26V100.512ZM151.964 115.653V92.5267C151.964 90.808 153.356 89.416 155.075 89.416H163.113C165.916 89.416 167.955 89.652 169.225 90.1227C170.496 90.596 171.512 91.432 172.276 92.6373C173.04 93.844 173.423 95.22 173.423 96.772C173.423 98.74 172.844 100.367 171.687 101.649C170.529 102.932 168.799 103.74 166.497 104.073C167.641 104.743 168.588 105.476 169.332 106.276C170.079 107.075 171.084 108.496 172.348 110.535L175.553 115.653H170.775C169.801 115.653 168.891 115.168 168.347 114.359L165.387 109.944C164.027 107.904 163.095 106.619 162.595 106.088C162.093 105.556 161.563 105.192 161.001 104.996C160.441 104.799 159.552 104.7 158.335 104.7H157.26V112.625C157.26 114.297 155.904 115.653 154.232 115.653H151.964Z" fill="white"/>
<path d="M189.673 104.521C189.637 103.065 189.261 101.96 188.545 101.201C187.83 100.443 186.958 100.065 185.933 100.065C184.834 100.065 183.927 100.465 183.211 101.264C182.495 102.064 182.145 103.151 182.155 104.521H189.673ZM191.821 110.013L194.397 110.445C193.754 112.283 192.735 113.683 191.346 114.643C189.957 115.604 188.218 116.084 186.129 116.084C182.823 116.084 180.378 115.003 178.791 112.843C177.538 111.113 176.913 108.931 176.913 106.293C176.913 103.144 177.735 100.677 179.381 98.892C181.027 97.1093 183.111 96.216 185.627 96.216C188.455 96.216 190.686 97.152 192.322 99.0173C193.955 100.885 194.737 103.747 194.667 107.6H182.066C182.102 109.092 182.509 110.252 183.283 111.08C184.059 111.911 185.026 112.327 186.183 112.327C186.97 112.327 187.633 112.111 188.169 111.681C188.342 111.543 188.503 111.376 188.649 111.183C189.375 110.219 190.631 109.813 191.821 110.013Z" fill="white"/>
<path d="M209.251 106.526C208.609 106.741 207.586 106.998 206.191 107.297C204.795 107.594 203.882 107.887 203.453 108.173C202.797 108.638 202.47 109.229 202.47 109.945C202.47 110.649 202.731 111.258 203.257 111.771C203.781 112.283 204.449 112.539 205.261 112.539C206.167 112.539 207.031 112.241 207.855 111.645C208.463 111.193 208.863 110.637 209.055 109.981C209.185 109.551 209.251 108.734 209.251 107.527V106.526ZM200.029 101.997L197.958 101.623C198.471 99.7846 199.355 98.4246 200.607 97.5419C201.861 96.6593 203.721 96.2166 206.191 96.2166C208.434 96.2166 210.105 96.4833 211.202 97.0139C212.301 97.5446 213.074 98.2193 213.521 99.0366C213.967 99.8539 214.191 101.354 214.191 103.538L214.138 109.407C214.138 111.079 214.218 112.31 214.379 113.103C214.539 113.897 214.841 114.747 215.283 115.654H211.797C210.889 115.654 210.083 115.059 209.831 114.189L209.825 114.169C209.741 113.87 209.681 113.673 209.645 113.578C208.786 114.414 207.867 115.039 206.89 115.457C205.91 115.875 204.867 116.083 203.757 116.083C201.799 116.083 200.258 115.553 199.13 114.49C198.002 113.429 197.439 112.086 197.439 110.465C197.439 109.39 197.697 108.433 198.21 107.59C198.722 106.75 199.441 106.106 200.366 105.659C201.29 105.211 202.623 104.819 204.365 104.485C206.717 104.045 208.345 103.634 209.251 103.251V102.75C209.251 101.783 209.013 101.094 208.535 100.683C208.059 100.271 207.158 100.066 205.834 100.066C204.938 100.066 204.241 100.242 203.739 100.593C203.629 100.67 203.523 100.761 203.422 100.865C202.534 101.773 201.278 102.222 200.029 101.997Z" fill="white"/>
<path d="M219.149 115.653V92.9333C219.149 90.9907 220.724 89.416 222.667 89.416H224.179V112.843C224.179 114.395 222.921 115.653 221.368 115.653H219.149Z" fill="white"/>
<path d="M239.553 115.653V92.8187C239.553 90.9387 241.077 89.416 242.955 89.416H259.007V90.1333C259.007 92.188 257.341 93.8547 255.286 93.8547H244.85V99.672H258.023V100.607C258.023 102.531 256.463 104.092 254.538 104.092H244.85V111.232H259.509V111.815C259.509 113.935 257.79 115.653 255.67 115.653H239.553Z" fill="white"/>
<path d="M262.192 110.23L263.455 110.038C265.192 109.773 267.013 110.231 268.275 111.454C268.361 111.538 268.451 111.615 268.547 111.689C269.201 112.197 270.12 112.45 271.301 112.45C272.601 112.45 273.581 112.211 274.236 111.734C274.679 111.399 274.9 110.953 274.9 110.391C274.9 110.01 274.78 109.694 274.54 109.442C274.291 109.203 273.729 108.985 272.859 108.781C268.801 107.887 266.231 107.07 265.145 106.33C263.641 105.303 262.891 103.877 262.891 102.051C262.891 100.406 263.54 99.0208 264.841 97.8995C266.141 96.7782 268.157 96.2168 270.891 96.2168C273.492 96.2168 275.423 96.6422 276.689 97.4888C277.953 98.3355 278.824 99.5888 279.303 101.246L277.745 101.534C276.213 101.817 274.695 101.334 273.421 100.434C273.416 100.43 273.411 100.426 273.405 100.423C272.837 100.029 272.029 99.8328 270.98 99.8328C269.655 99.8328 268.705 100.018 268.133 100.387C267.752 100.65 267.561 100.989 267.561 101.407C267.561 101.765 267.729 102.07 268.063 102.321C268.516 102.654 270.081 103.125 272.76 103.734C275.44 104.342 277.308 105.089 278.371 105.971C279.421 106.866 279.947 108.113 279.947 109.71C279.947 111.453 279.219 112.951 277.761 114.205C276.307 115.455 274.153 116.083 271.301 116.083C268.712 116.083 266.664 115.558 265.153 114.509C263.644 113.458 262.657 112.033 262.192 110.23Z" fill="white"/>
<path d="M293.066 96.6462V97.6782C293.066 99.3222 291.733 100.655 290.09 100.655H289.63V108.315C289.63 109.866 289.662 110.771 289.729 111.027C289.793 111.285 289.942 111.495 290.176 111.662C290.408 111.83 290.692 111.913 291.026 111.913C291.492 111.913 292.165 111.751 293.048 111.43L293.164 112.479C293.362 114.285 292.044 115.955 290.232 116.062C289.993 116.077 289.752 116.083 289.505 116.083C288.598 116.083 287.78 115.931 287.053 115.627C286.324 115.322 285.79 114.929 285.45 114.446C285.11 113.963 284.874 113.309 284.742 112.485C284.636 111.902 284.582 110.719 284.582 108.942V100.655H282.274V98.4422C282.274 97.4502 283.078 96.6462 284.069 96.6462H284.582V93.5435C284.582 91.5515 286.198 89.9355 288.192 89.9355H289.63V96.6462H293.066Z" fill="white"/>
<path d="M307.042 106.526C306.4 106.741 305.378 106.998 303.982 107.297C302.586 107.594 301.674 107.887 301.244 108.173C300.589 108.638 300.261 109.229 300.261 109.945C300.261 110.649 300.522 111.258 301.048 111.771C301.572 112.283 302.24 112.539 303.053 112.539C303.958 112.539 304.822 112.241 305.646 111.645C306.256 111.193 306.654 110.637 306.846 109.981C306.977 109.551 307.042 108.734 307.042 107.527V106.526ZM297.714 101.977L295.75 101.623C296.264 99.7846 297.146 98.4246 298.4 97.5419C299.653 96.6593 301.513 96.2166 303.982 96.2166C306.225 96.2166 307.896 96.4833 308.993 97.0139C310.092 97.5446 310.865 98.2193 311.312 99.0366C311.758 99.8539 311.984 101.354 311.984 103.538L311.93 109.407C311.93 111.079 312.01 112.31 312.172 113.103C312.332 113.897 312.632 114.747 313.074 115.654H309.588C308.68 115.654 307.876 115.059 307.622 114.189L307.617 114.169C307.532 113.87 307.472 113.673 307.436 113.578C306.578 114.414 305.658 115.039 304.681 115.457C303.702 115.875 302.658 116.083 301.548 116.083C299.592 116.083 298.049 115.553 296.922 114.49C295.793 113.429 295.23 112.086 295.23 110.465C295.23 109.39 295.488 108.433 296.001 107.59C296.514 106.75 297.232 106.106 298.157 105.659C299.081 105.211 300.414 104.819 302.157 104.485C304.508 104.045 306.136 103.634 307.042 103.251V102.75C307.042 101.783 306.804 101.094 306.328 100.683C305.85 100.271 304.949 100.066 303.625 100.066C302.729 100.066 302.032 100.242 301.532 100.593C301.448 100.651 301.366 100.718 301.289 100.791C300.314 101.706 299.029 102.215 297.714 101.977Z" fill="white"/>
<path d="M325.656 96.6462V97.9128C325.656 99.4262 324.428 100.655 322.912 100.655H322.22V108.315C322.22 109.866 322.252 110.771 322.319 111.027C322.383 111.285 322.532 111.495 322.766 111.662C322.998 111.83 323.282 111.913 323.616 111.913C324.082 111.913 324.754 111.751 325.638 111.43L325.788 112.797C325.967 114.427 324.776 115.898 323.14 116.039C322.8 116.069 322.452 116.083 322.095 116.083C321.187 116.083 320.37 115.931 319.643 115.627C318.914 115.322 318.38 114.929 318.04 114.446C317.7 113.963 317.464 113.309 317.332 112.485C317.226 111.902 317.172 110.719 317.172 108.942V100.655H314.864V98.5582C314.864 97.5022 315.72 96.6462 316.775 96.6462H317.172V93.1728C317.172 91.3848 318.623 89.9355 320.41 89.9355H322.22V96.6462H325.656Z" fill="white"/>
<path d="M340.44 104.521C340.404 103.065 340.027 101.96 339.312 101.201C338.598 100.443 337.726 100.065 336.699 100.065C335.602 100.065 334.695 100.465 333.978 101.264C333.263 102.064 332.912 103.151 332.923 104.521H340.44ZM342.215 109.951L345.164 110.445C344.522 112.283 343.503 113.683 342.114 114.643C340.724 115.604 338.984 116.084 336.896 116.084C333.591 116.084 331.146 115.003 329.559 112.843C328.304 111.113 327.68 108.931 327.68 106.293C327.68 103.144 328.503 100.677 330.148 98.892C331.795 97.1093 333.878 96.216 336.395 96.216C339.223 96.216 341.454 97.152 343.088 99.0173C344.723 100.885 345.504 103.747 345.434 107.6H332.834C332.87 109.092 333.276 110.252 334.051 111.08C334.827 111.911 335.794 112.327 336.951 112.327C337.738 112.327 338.4 112.111 338.936 111.681C339.115 111.537 339.28 111.365 339.43 111.164C340.087 110.28 341.13 109.768 342.215 109.951Z" fill="white"/>
<path d="M151.48 79.6787V17.312C151.48 13.1107 154.886 9.70671 159.087 9.70671H203.363V13.9387C203.363 18.1387 199.958 21.544 195.758 21.544H165.608V37.056H200.738V41.2387C200.738 45.44 197.332 48.8454 193.131 48.8454H165.608V67.8894H204.7V72.072C204.7 76.2734 201.294 79.6787 197.094 79.6787H151.48Z" fill="white"/>
<path d="M216.585 79.6787V17.312C216.585 13.1107 219.99 9.70671 224.191 9.70671H229.997V72.072C229.997 76.2734 226.591 79.6787 222.39 79.6787H216.585Z" fill="white"/>
<path d="M243.744 79.6787V38.1174C243.744 33.076 247.829 28.9894 252.87 28.9894H257.156V72.072C257.156 76.2734 253.749 79.6787 249.549 79.6787H243.744ZM243.744 22.1174V16.1414C243.744 12.5867 246.625 9.70671 250.178 9.70671H257.156V16.8507C257.156 19.7587 254.797 22.1174 251.889 22.1174H243.744Z" fill="white"/>
<path d="M294.146 29.3955V34.4515C294.146 37.3395 291.803 39.6808 288.915 39.6808H285.387C285.163 39.6808 284.981 39.8635 284.981 40.0875V60.1102C284.981 64.2462 285.069 66.6555 285.243 67.3395C285.419 68.0248 285.817 68.5902 286.437 69.0355C287.058 69.4808 287.813 69.7035 288.705 69.7035C289.859 69.7035 291.495 69.3315 293.615 68.5875C293.863 68.5008 294.126 68.6648 294.155 68.9248L294.869 75.4062C295.102 77.5382 293.717 79.5075 291.634 80.0222C289.47 80.5568 287.142 80.8235 284.647 80.8235C282.229 80.8235 280.049 80.4195 278.109 79.6062C276.167 78.7955 274.743 77.7448 273.837 76.4568C272.93 75.1675 272.301 73.4248 271.951 71.2315C271.665 69.6728 271.522 66.5208 271.522 61.7808V40.0875C271.522 39.8635 271.339 39.6808 271.115 39.6808H265.77C265.546 39.6808 265.365 39.4995 265.365 39.2755V30.8235C265.365 29.8115 266.185 28.9888 267.199 28.9888H271.115C271.339 28.9888 271.522 28.8075 271.522 28.5835V18.6968C271.522 14.4968 274.926 11.0902 279.127 11.0902H284.575C284.799 11.0902 284.981 11.2728 284.981 11.4968V28.5835C284.981 28.8075 285.163 28.9888 285.387 28.9888H293.739C293.963 28.9888 294.146 29.1715 294.146 29.3955Z" fill="white"/>
<path d="M333.57 49.9906C333.476 46.108 332.473 43.1586 330.564 41.136C328.654 39.1173 326.332 38.1066 323.596 38.1066C320.668 38.1066 318.249 39.1733 316.34 41.304C314.432 43.436 313.492 46.3306 313.525 49.9906H333.57ZM339.28 64.632L346.17 65.7893C344.453 70.6906 341.74 74.4213 338.034 76.9826C334.326 79.544 329.689 80.824 324.121 80.824C315.306 80.824 308.782 77.944 304.55 72.1853C301.209 67.572 299.54 61.748 299.54 54.716C299.54 46.316 301.736 39.7386 306.126 34.9786C310.516 30.224 316.07 27.844 322.785 27.844C330.325 27.844 336.274 30.3333 340.634 35.3133C344.993 40.2946 347.08 47.924 346.888 58.2013H313.286C313.38 62.1786 314.462 65.2733 316.532 67.484C318.6 69.696 321.177 70.8013 324.264 70.8013C326.364 70.8013 328.13 70.228 329.561 69.0826C329.986 68.744 330.377 68.344 330.74 67.8826C332.76 65.3106 336.054 64.0906 339.28 64.632Z" fill="white"/>
<defs>
<filter id="filter0_d_201_1289" x="0" y="0" width="120.713" height="133.789" filterUnits="userSpaceOnUse" color-interpolation-filters="sRGB">
<feFlood flood-opacity="0" result="BackgroundImageFix"/>
<feColorMatrix in="SourceAlpha" type="matrix" values="0 0 0 0 0 0 0 0 0 0 0 0 0 0 0 0 0 0 127 0" result="hardAlpha"/>
<feOffset dy="4"/>
<feGaussianBlur stdDeviation="2"/>
<feComposite in2="hardAlpha" operator="out"/>
<feColorMatrix type="matrix" values="0 0 0 0 1 0 0 0 0 1 0 0 0 0 1 0 0 0 0.25 0"/>
<feBlend mode="normal" in2="BackgroundImageFix" result="effect1_dropShadow_201_1289"/>
<feBlend mode="normal" in="SourceGraphic" in2="effect1_dropShadow_201_1289" result="shape"/>
</filter>
<linearGradient id="paint0_linear_201_1289" x1="30.7834" y1="-1.05316" x2="30.7834" y2="119.644" gradientUnits="userSpaceOnUse">
<stop stop-color="#FF0000"/>
<stop offset="0.485427" stop-color="#FF0000"/>
<stop offset="1" stop-color="#900000"/>
</linearGradient>
<linearGradient id="paint1_linear_201_1289" x1="89.916" y1="-1.05317" x2="89.916" y2="119.644" gradientUnits="userSpaceOnUse">
<stop stop-color="#FF0000"/>
<stop offset="0.485427" stop-color="#FF0000"/>
<stop offset="1" stop-color="#900000"/>
</linearGradient>
<linearGradient id="paint2_linear_201_1289" x1="60.3568" y1="-1.05284" x2="60.3568" y2="119.645" gradientUnits="userSpaceOnUse">
<stop stop-color="#FF0000"/>
<stop offset="0.485427" stop-color="#FF0000"/>
<stop offset="1" stop-color="#900000"/>
</linearGradient>
</defs>
</svg>
